<svg width="295" height="235" viewBox="0 0 295 235" fill="none" xmlns="http://www.w3.org/2000/svg">
<path d="M175.526 85.5294C197.543 85.5442 215.538 67.2755 215.554 44.5564C215.569 21.8373 197.598 3.54424 175.581 3.52937C153.565 3.5145 135.569 21.7833 135.554 44.5024C135.538 67.2214 153.509 85.5145 175.526 85.5294Z" stroke="#72A624" stroke-width="7"/>
<path d="M278.129 47.6193C285.735 47.614 291.49 53.3129 291.495 59.853C291.499 66.3932 285.751 72.1011 278.144 72.1066C270.537 72.1119 264.782 66.4121 264.778 59.8719C264.774 53.3318 270.522 47.6246 278.129 47.6193Z" stroke="#72A624" stroke-width="7"/>
<line y1="-3.5" x2="232.002" y2="-3.5" transform="matrix(1 0.000675265 0.000675265 -1 0 122.411)" stroke="#72A624" stroke-width="7"/>
<line y1="-3.5" x2="70.6643" y2="-3.5" transform="matrix(0.546192 -0.83766 0.848503 0.529191 232.005 130.165)" stroke="#72A624" stroke-width="7"/>
<line y1="-3.5" x2="77.1038" y2="-3.5" transform="matrix(0.726757 -0.686894 -0.686894 -0.726757 86.0014 121.969)" stroke="#72A624" stroke-width="7"/>
<path d="M118.931 230.65C130.091 230.657 138.437 222.684 138.443 213.663C138.449 204.642 130.114 196.657 118.954 196.65C107.795 196.642 99.449 204.616 99.4429 213.637C99.4369 222.658 107.772 230.642 118.931 230.65Z" stroke="#72A624" stroke-width="7"/>
<line y1="-3.5" x2="93.3464" y2="-3.5" transform="matrix(0.56411 0.825699 0.859291 -0.511487 56.0048 122.107)" stroke="#72A624" stroke-width="7"/>
</svg>
