<svg width="166" height="381" viewBox="0 0 166 381" fill="none" xmlns="http://www.w3.org/2000/svg">
<path d="M105 0V292" stroke="#72A624" stroke-width="7"/>
<path d="M104.576 54L53 93.5584" stroke="#72A624" stroke-width="7"/>
<path d="M163 186L108 128" stroke="#72A624" stroke-width="7"/>
<path d="M104.862 165L56 207.866" stroke="#72A624" stroke-width="7"/>
<path d="M104.5 295.5C126.517 295.5 144.5 313.781 144.5 336.5C144.5 359.219 126.517 377.5 104.5 377.5C82.4832 377.5 64.5 359.219 64.5 336.5C64.5 313.781 82.4832 295.5 104.5 295.5Z" stroke="#72A624" stroke-width="7"/>
<path d="M33 199.5C49.3947 199.5 62.5 212.361 62.5 228C62.5 243.639 49.3947 256.5 33 256.5C16.6053 256.5 3.5 243.639 3.5 228C3.5 212.361 16.6053 199.5 33 199.5Z" stroke="#72A624" stroke-width="7"/>
</svg>
