<svg width="144" height="314" viewBox="0 0 144 314" fill="none" xmlns="http://www.w3.org/2000/svg">
<path d="M57.5294 43.5577C57.5145 21.5409 75.7833 3.54539 98.5024 3.53005C121.221 3.51471 139.514 21.4855 139.529 43.5024C139.544 65.5192 121.275 83.5147 98.5564 83.53C75.8373 83.5454 57.5442 65.5745 57.5294 43.5577Z" stroke="#72A624" stroke-width="7"/>
<line y1="-3.5" x2="232.002" y2="-3.5" transform="matrix(0.000675265 -1 -1 -0.000675265 91.4108 314)" stroke="#72A624" stroke-width="7"/>
<line y1="-3.5" x2="70.6643" y2="-3.5" transform="matrix(-0.83766 -0.546192 0.529191 -0.848503 99.1926 204.596)" stroke="#72A624" stroke-width="7"/>
<line x1="96.4921" y1="162.594" x2="134.492" y2="123.559" stroke="#72A624" stroke-width="7"/>
<path d="M41.5155 165.025C41.5228 154.184 32.9465 145.52 22.518 145.512C12.0895 145.506 3.50234 154.159 3.49502 165C3.4877 175.84 12.0632 184.505 22.4916 184.512C32.9202 184.52 41.5082 175.866 41.5155 165.025Z" stroke="#72A624" stroke-width="7"/>
<line x1="97.0645" y1="276.522" x2="51.9884" y2="244.864" stroke="#72A624" stroke-width="7"/>
</svg>
