<svg width="318" height="235" viewBox="0 0 318 235" fill="none" xmlns="http://www.w3.org/2000/svg">
<path d="M142.423 149.489C120.406 149.474 102.41 167.743 102.395 190.462C102.38 213.181 120.35 231.474 142.367 231.489C164.384 231.504 182.38 213.235 182.395 190.516C182.41 167.797 164.439 149.504 142.423 149.489Z" stroke="#72A624" stroke-width="7"/>
<path d="M23.0206 4.40819C11.8615 4.40065 3.51518 12.374 3.50909 21.395C3.50299 30.4161 11.8385 38.4006 22.9976 38.4082C34.1567 38.4157 42.503 30.4424 42.5091 21.4214C42.5152 12.4003 34.1796 4.41572 23.0206 4.40819Z" stroke="#72A624" stroke-width="7"/>
<line y1="-3.5" x2="232.002" y2="-3.5" transform="matrix(-1 -0.000675265 -0.000675265 1 317.949 112.607)" stroke="#72A624" stroke-width="7"/>
<line y1="-3.5" x2="93.3464" y2="-3.5" transform="matrix(-0.56411 -0.825699 -0.859291 0.511487 85.9473 112.951)" stroke="#72A624" stroke-width="7"/>
<line y1="-3.5" x2="77.1038" y2="-3.5" transform="matrix(-0.726757 0.686894 0.686894 0.726757 231.947 113.049)" stroke="#72A624" stroke-width="7"/>
</svg>
